<?xml version="1.0" encoding="utf-8"?>
<!-- Generator: Adobe Illustrator 27.4.1, SVG Export Plug-In . SVG Version: 6.00 Build 0)  -->
<svg version="1.1" xmlns="http://www.w3.org/2000/svg" xmlns:xlink="http://www.w3.org/1999/xlink" x="0px" y="0px"
	 viewBox="0 0 604 1164" style="enable-background:new 0 0 604 1164;" xml:space="preserve">
<g id="Capa_1" style="display:none;">
</g>
<g id="Capa_2">
	
		<image style="display:none;overflow:visible;" width="453" height="805" xlink:href="C14D71E5.jpg"  transform="matrix(1.2033 0.3239 -0.3549 1.3187 159.8068 94.6991)">
	</image>
	
		<image style="display:none;overflow:visible;" width="308" height="662" xlink:href="C14D71E7.jpg"  transform="matrix(-1.7183 0 0 1.7183 457.3488 21.5)">
	</image>
	
		<image style="display:none;overflow:visible;" width="1439" height="1078" xlink:href="C14D71E2.jpg"  transform="matrix(-0.9067 0 0 0.9182 827.175 -91)">
	</image>
	
		<image style="display:none;overflow:visible;" width="1200" height="628" xlink:href="C14D71E3.jpg"  transform="matrix(1 0 0 1 -304.0002 27.25)">
	</image>
	<polygon style="fill:#DCD2C8;stroke:#1D1D1B;stroke-width:2;stroke-miterlimit:10;" points="180,428.6 176.2,469.9 208.7,482.8 
		242.9,469.2 241,425.1 	"/>
	<path style="fill:#B3D9EC;stroke:#1D1D1B;stroke-miterlimit:10;" d="M156,406.2l-43.2,5.5l9.2-29.5l-49.8-1.8l14.5-34
		c0,0-47.8-13.8-55.8-22c0,0,48.5-35,55.5-44.2c0,0-51-26-72.8-35.5c0,0,66.8-34.8,74.5-37.2l-41.5-84.8c0,0,59.8,9.8,91.5,6
		c0,0,6.8-39.5-4-118c0,0,63.5,53.8,89.5,95.2c0,0,41.2-22.8,72.2-72.5c0,0,6.4,33.3,5.8,63.5c-0.3,15.1-13.9,36.6-7.8,38.5
		c14.7,4.6,70.5-10.5,70.5-10.5s-20.2,42-42.3,71.7c0,0,14.8,25.7,51.5,32.3c0,0-48.7,30.7-46.5,46.8c2.2,16.2,36.3,37.5,36.3,37.5
		s-37.2,11.3-48.7,21.5c0,0-1.3,9,23,33.7l-24.2,0.7c0,0-1.7,11.7,10.8,24.8l-46.5,0.5L156,406.2z"/>
	<path style="fill:#DCD2C8;stroke:#1D1D1B;stroke-width:2;stroke-miterlimit:10;" d="M302,306.2c13.9-0.4,24.9,11.4,24,24.3
		c-0.9,12.5-12.6,22.5-25.8,21"/>
	<path style="fill:#DCD2C8;stroke:#1D1D1B;stroke-width:2;stroke-miterlimit:10;" d="M252.7,138.8c-21.7-9.4-44.5-4.3-57.9-1.2
		c-4.2,0.9-25.9,5.9-42.1,18c-36.1,27-35.9,82.6-35.8,121.8c0.2,43,0.5,114.2,49,149.8c6,4.4,25.8,18.5,53.5,18.5
		c39.9,0,65.8-29.5,68.5-32.7c18.5-21.7,19.3-54.3,20.2-118.6c0.9-65.8-7.2-88.9-11.5-99.5C289.1,175.9,278.6,150,252.7,138.8z"/>
	<path style="fill:#DCD2C8;stroke:#1D1D1B;stroke-width:2;stroke-miterlimit:10;" d="M128.2,311.8c-16-0.2-28.2,12.2-28.4,24.7
		c-0.2,13.9,14.5,27.7,32.4,25"/>
	<polygon style="fill:#B8CCB3;stroke:#1D1D1B;stroke-width:2;stroke-miterlimit:10;" points="132,875 260.5,875 327.7,1164 
		63.8,1164 	"/>
	<path style="fill:#DCD2C8;stroke:#1D1D1B;stroke-width:2;stroke-miterlimit:10;" d="M266.7,301.6c19.4,6.6,37.4-1.5,41.8-13.8
		c3.7-10.4-3.4-21.3-4.6-23"/>
	<path style="fill:#FEFEFE;stroke:#1D1D1B;stroke-width:2;stroke-miterlimit:10;" d="M228.3,261.7c-0.6,3.1-2.5,12.4-10.4,20
		c-10,9.5-22.7,9.7-29.6,9.8c-7.6,0.1-19.3,0.3-29.1-8.2c-12.7-11-12.1-27.7-12-30.5c1-19.5,16.2-30.2,17.8-31.3
		c14.3-9.7,35.8-10.7,50.3,1.9C227.4,233.5,230.7,249.3,228.3,261.7z"/>
	<path style="fill:#9FDADB;stroke:#1D1D1B;stroke-width:2;stroke-miterlimit:10;" d="M175.7,461.5c3.4,2.6,18.2,13.4,38.8,11.2
		c14.2-1.5,23.9-8.4,28-11.6l18,18.4v413.8l-118.3,3L159,475.5L175.7,461.5z"/>
	<polygon style="fill:#786545;stroke:#1D1D1B;stroke-width:2;stroke-miterlimit:10;" points="126.4,1164 130.7,878 266.7,879.4 
		292.6,1164 244.3,1164 215,931.3 156.7,931.3 184.3,931.3 177.3,1164 	"/>
	<path style="fill:none;stroke:#1D1D1B;stroke-width:2;stroke-miterlimit:10;" d="M214.3,847.8l-0.5,19.8l-62.8-1
		c0,0,0.9-9.6-1.2-17.8"/>
	<path style="fill:#402F25;stroke:#1D1D1B;stroke-width:2;stroke-miterlimit:10;" d="M137.7,864.2l108.5-1.3
		c0.7,6.8,1.3,13.7,2,20.5c-18.2,1.9-37.8,3.4-58.7,4c-20.4,0.6-39.7,0.4-57.7-0.3C133.8,879.4,135.7,871.8,137.7,864.2z"/>
	<path style="fill:#FEFEFE;stroke:#1D1D1B;stroke-width:2;stroke-miterlimit:10;" d="M241.1,232c-8.2,16.5-2.7,38.4,12.8,49.4
		c19.5,13.8,49,6.1,59.4-14.8c7.8-15.6,3.4-35.7-9.4-46.7C285.3,203.9,252.2,209.7,241.1,232z"/>
	<polygon style="fill:#9FDADB;stroke:#1D1D1B;stroke-width:2;stroke-miterlimit:10;" points="38.3,918.3 33.3,948.5 41.8,959.8 
		58.5,962.5 64.9,955.6 73,922.2 	"/>
	<path style="fill:#BFDAE4;stroke:#1D1D1B;stroke-width:2;stroke-miterlimit:10;" d="M234.6,182.4c-4.7,0.3-7,1.8-13.7,4.9
		c-11,5-8.1,2.6-33.9,13.1c-14.1,5.7-11.4,5-14,5.8c-6.1,1.9-9.3,2.2-12.2,5.4c-2.4,2.6-4.4,7-2.9,9.5c1.3,2.1,4.9,2.2,7,2.1
		c15.9-0.5,35.3-9.7,35.9-10c18.3-8.7,27.5-13.2,32.1-13.4c8.7-0.4,17.5,3.3,35.2,10.5c6.9,2.8,14.2,6.2,25.4,7.9
		c4.4,0.7,14.8,2.2,16.4-1.4c1.4-3.1-4.6-8.7-5.1-9.1c-3.7-3.3-7-4-13-6.2c-6.8-2.6-5.4-2.8-14-6.4c-6.2-2.6-6.7-2.4-26.1-8.8
		C241.1,182.9,238.8,182.1,234.6,182.4z"/>
	<path style="fill:#1D1D1B;" d="M215.4,250.5c0,4.3-0.6-0.9-1.5,3.7c-1,4.1-2.3-0.3-3.7,1.5c-1.4,0.3-2.8,1.4-3.7-1.5
		c-1-1.4-1.5-0.3-1.5-3.7c0,0.9,0.6-3.1,1.5-3.7c1,1,2.3-3.7,3.7-1.5c1.4,1,2.8-1.7,3.7,1.5C214.8,245.4,215.4,251.3,215.4,250.5z"
		/>
	<path style="fill:#1D1D1B;" d="M302.1,253c-4.2,0.7,0.8-0.7-3.9-0.9c-4.2-0.2-0.1-2.3-2.1-3.4c-0.5-1.4-1.8-2.5,0.9-3.9
		c1.2-1.2,0-1.6,3.4-2.1c-0.9,0.2,3.1,0.1,3.9,0.9c-0.8,1.1,4,1.6,2.1,3.4c-0.7,1.6,2.2,2.4-0.9,3.9
		C307,251.5,301.3,253.1,302.1,253z"/>
	<path style="fill:none;stroke:#1D1D1B;stroke-width:2;stroke-miterlimit:10;" d="M172.5,357.5c-6.3,3.9-9.6,10.7-8.3,16.4
		c1.8,7.8,12.4,13.8,23.3,9.6"/>
	<path style="fill:none;stroke:#1D1D1B;stroke-width:2;stroke-miterlimit:10;" d="M288.5,349.2c9.1,2.8,13.4,12.2,10.7,19.2
		c-2.1,5.3-8.1,9-14.8,8.6"/>
	<path style="fill:none;stroke:#1D1D1B;stroke-width:2;stroke-miterlimit:10;" d="M178.7,373.5c7.9-2.4,38.4-11.3,65.8-14.6
		c9.2-1.1,18.6-1.7,29.8,0.6c6.7,1.4,12,3.3,15.5,4.8"/>
	<path style="fill:none;stroke:#1D1D1B;stroke-width:2;stroke-miterlimit:10;" d="M249.9,283c2.4,9,4.4,17.1,5.9,24
		c1.9,8.8,2.7,13.5,0.5,18.5c-0.3,0.7-3.5,7.8-7.9,8.1c-7.9,0.6-15.6-21.6-19.1-33"/>
	<path style="fill:none;stroke:#1D1D1B;stroke-width:2;stroke-miterlimit:10;" d="M197.6,304.9c-3.3,1.4-18,7.2-33.9,0.6
		c-7.8-3.2-13-8.3-15.8-11.5"/>
	<path style="fill:#D6DBC9;stroke:#1D1D1B;stroke-width:2;stroke-miterlimit:10;" d="M547.4,429c8.4,2.9,13.2,11.2,14.1,17.9
		c2.4,17.4-19.9,35.8-30.8,32c-11.7-4.1-16.4-35.8-2.8-46.8C532.9,428.2,540.6,426.6,547.4,429z"/>
	<polygon style="fill:#9FDADB;stroke:#1D1D1B;stroke-width:2;stroke-miterlimit:10;" points="548.5,419.9 550.4,470.1 520,462.9 
		507.4,443 506.1,414.5 530.1,421.1 	"/>
	<path style="fill:#FFFFFF;stroke:#1D1D1B;stroke-width:2;stroke-miterlimit:10;" d="M175.8,461.3l1.4,2.8c0,0-4.4,8.2-5,26.4
		c-0.6,18.2-4.3,83.5-8.2,164.8c-2.6,53.9-16.4,214.6-42.4,347.2c-13.2,67.2-48.2,152.1-48.5,161.5H52.9
		c21.5-70,23.1-70.4,39.3-176.8c9.2-60.4,9.6-145.7,10.3-150.7c1.8-12.8,6.2-72.8,4.2-80.8c-4.4,27.1-9,54.4-13.7,81.8
		c-6.2,36.3-12.7,72.1-19.2,107.6c-5.1-1.5-10.9-2.9-17.3-4c-9-1.5-17.2-2-24.2-2c3.8-22.8,9.3-57.2,16-99.1
		c8.5-53.5,18.1-114.8,22.2-146.3c8.2-63,11-118.5,32.2-204.2c7-5.2,15.9-10.8,26.8-15.8C147.5,465.6,163.9,462.5,175.8,461.3z"/>
	<path style="fill:#FFFFFF;stroke:#1D1D1B;stroke-width:2;stroke-miterlimit:10;" d="M243.5,460.2l-1,2.8c0,0,1.2,39.1,0,102.9
		s-10.3,226.4-1.8,276.8c6.1,35.8,7.6,64.6,18.3,127.7c17.3,102,53.2,193.7,53.2,193.7H358c0,0-27.8-144.5-40.6-267.8
		c-9.3-89.3-3.6-153.6-3.8-190.2c-0.5-87.2-5.2-175.2-5.2-175.2l-6.6-8.2c0,0,180.8,186,202.4,199c21.7,13,42.7,1.7,47.8-69.8
		c5.2-71.5,4.8-72,6.2-103s4.8-91,3.6-98.7c0,0-13.8,31-55.3-9c0,0,3,17.4,0.2,68c-0.9,16.4-3.7,35.1-5.3,55.2
		c-3.5,41.5-6.4,84.8-7.3,98.2l1.1-22.7c0,0-32.1-25.4-59.4-49.9s-39-39-54.5-52.5s-57.8-50.5-68.1-64.2s-27.9-13.8-36.8-14
		S255.2,461.2,243.5,460.2z"/>
	<g>
		<path style="opacity:0.3;fill:#EA5B0C;" d="M478.3,234.8c0,0-59.1-15.2-66.1-15.1c-7.1,0.1-21.2,8.4-23.2,30.4
			c-1.7,18.2,8.2,21.6,22.6,26.2c13.6,4.3,60.2,15.2,60.2,15.2L478.3,234.8z"/>
		<path style="fill:none;stroke:#EA5B0C;stroke-width:3;stroke-miterlimit:10;" d="M478.3,234.8c0,0-59.1-15.2-66.1-15.1
			c-7.1,0.1-21.2,8.4-23.2,30.4c-1.7,18.2,8.2,21.6,22.6,26.2c13.6,4.3,60.2,15.2,60.2,15.2L478.3,234.8z"/>
	</g>
	<path style="fill:none;stroke:#1D1D1B;stroke-width:2;stroke-miterlimit:10;" d="M166.6,472.2c0,0-4,14.4-12.2,32.8
		c-14.3,32.2-29.8,54.8-37.4,83.4c0,0,3.1,5.1,10.2,10.7c9.7,7.6,19.1,23.3,22.7,25.6c2.6,1.7-3.5,5.4-10,11.2
		c-6.2,5.5-12.2,11.2-17.6,17.4c-2.3,2.6-4.5,5.3-6.2,8.3c-2.6,4.5,1.6,9.8,3.2,14c2,5.4,3.4,10.9,4.5,16.5
		c2.3,11.3,3.4,22.8,5.8,34.1C134,747,143,766.6,145,787.7"/>
	<polygon style="fill:#3F3F3F;stroke:#1D1D1B;stroke-width:4;stroke-linejoin:bevel;stroke-miterlimit:10;" points="480.2,192.3 
		484.2,198.4 510.7,210.8 590.4,173.2 589.2,166.1 569.2,155.4 	"/>
	<path style="fill:none;stroke:#1D1D1B;stroke-width:2;stroke-miterlimit:10;" d="M256,474.8c0,0,8,17.5,15,40.8
		c7.6,25.2,14.4,57.1,20.5,78c0,0-16,18.3-32.5,32.2c0,0,4.9,4.8,9.2,10.7c5.4,7.4,11,16.7,19.5,22c0,0-2.7,17.3-8.7,39.5
		c-3.3,12.2-8.8,25.4-12.8,38.8c-9.2,30.8-17.1,60.5-20,65.2"/>
	<path style="fill:#C7C9C8;stroke:#1D1D1B;stroke-width:2;stroke-miterlimit:10;" d="M476.3,190.5l35,16l83.5-40l-36,129.2
		c0,0-5.5,21.5-18.8,32.3c-13.3,10.8-54.2,31.6-54.2,31.6s-23.1,7.9-24.4-20.6L476.3,190.5z"/>
	<path style="fill:#DCD2C8;stroke:#1D1D1B;stroke-width:2;stroke-miterlimit:10;" d="M548,421.6c-1.7,1.2-5,2.9-9.5,4.8
		c-4.7,1.9-9.5,2.9-14.7,1.9c-7-1.4-17-7-17-7c0,0-3.2-12.5-7.6-22.2c-6.6-14.6-11.8-14.1-13.1-22c-1.2-7.1,1.6-22.4,13.8-28.6
		c2.1-1.1,6.2-2.8,12.1-2.6c1.1-2.2,13.3-25.3,27.5-25.1c2.3,0,7.3,0.1,10,3.8c2.2,3,1.7,6.8,1.4,8.2c8-1,15,3,17,8.8
		c1.5,4.4-0.3,8.6-1,9.9c3.7,0.1,7,2.1,8.6,5.4c1.7,3.5,1.2,7.7-1.4,10.8c0.3,0.1,7.4,2.4,9,9.2c1.3,5.6-1.5,11.7-7.1,14.6
		C573.9,394.2,560.7,413.2,548,421.6z"/>
	<path style="fill:#C7C9C8;stroke:#1D1D1B;stroke-width:2;stroke-miterlimit:10;" d="M528.9,383c-0.5,1.4-0.7,3.2,8.2,21.2
		c7,14.1,8.6,15.9,10.2,17.5c2.3,2.1,11.8,11.1,22.1,7.8c7.9-2.5,12-10.6,13-16.6c1.2-7.2-1.8-12.8-5.6-20
		c-3.5-6.6-6.4-12-12.1-15.5C552.3,369.7,532.1,374.2,528.9,383z"/>
	<path style="fill:#DCD2C8;stroke:#1D1D1B;stroke-width:2;stroke-miterlimit:10;" d="M567.6,352.2c-2.9-0.3-6.7-0.2-11,0.8
		c-11.5,2.8-18.1,10.9-20.4,14"/>
	<path style="fill:#DCD2C8;stroke:#1D1D1B;stroke-width:2;stroke-miterlimit:10;" d="M576.2,391.8c-0.2-1.1-1-4.6-3.6-5.7
		c-1.9-0.8-3.8,0.1-5.8,1.1c-9.8,4.8-11.5,7.8-17.1,9c-1.8,0.4-6.9,1.5-8.9-1.2c-1.5-2-0.9-5.5,1.4-8.8c-5.7,3.6-12.1,3-14.9-0.4
		c-2.8-3.3-1.2-8.4-1.1-8.9c1.1-3.6,3.7-5.5,6.9-7.9c14.7-11.2,12.9-11.8,17.9-13.9c3.3-1.4,8.8-3.2,16.5-2.9"/>
	<path style="fill:#DCD2C8;stroke:#1D1D1B;stroke-width:2;stroke-miterlimit:10;" d="M572.9,367.7c-1.8,0-4.6,0.3-7.7,1.2
		c-2.6,0.8-5.1,2.1-10.8,6.3c-3,2.2-6.8,5.3-11.2,9.3"/>
	<path style="fill:#DCD2C8;stroke:#1D1D1B;stroke-width:2;stroke-miterlimit:10;" d="M544.1,322.2c-3.5-0.8-6.3-0.6-8.2-0.2
		c-8.3,1.5-13.7,8.2-19.1,15c-2.6,3.3-4.5,6.3-5.8,8.4c7.9,2.2,13.3,5.7,16.4,8.1c3.4,2.6,10.6,8.2,12.2,16.9
		c0.3,1.6,0.9,4.6-0.8,6.1c-2,1.9-6.3,0.3-8.6-0.6c-4.8-1.8-5-3.6-12.1-7.5c-3.5-1.9-5.6-2.7-7.6-3.1c-2.6-0.5-4.7-0.5-6.2-0.4"/>
	<path style="fill:#DCD2C8;stroke:#1D1D1B;stroke-width:2;stroke-miterlimit:10;" d="M550.7,333.2c-2.9,0.6-6.1,1.6-9.6,3.2
		c-9.4,4.4-15.3,11-18.4,15.2"/>
	<path style="fill:none;stroke:#1D1D1B;stroke-width:3;stroke-linejoin:bevel;stroke-miterlimit:10;" d="M511.2,207
		c0,0-15.7,121.5-20.5,138.3"/>
	<polygon style="fill:#95938C;stroke:#1D1D1B;stroke-width:3;stroke-linejoin:bevel;stroke-miterlimit:10;" points="569.2,151.6 
		476.3,190.5 482.6,193.4 568.1,158.6 586.9,170.3 594.8,166.5 	"/>
	
		<line style="fill:#95938C;stroke:#1D1D1B;stroke-width:3;stroke-linejoin:bevel;stroke-miterlimit:10;" x1="569.2" y1="151.6" x2="568.1" y2="158.6"/>
	<g>
		<path style="fill:#683C11;" d="M511.7,198.7c-6.1,0-11.3-3.3-11.3-7.3c0-4,5.2-7.3,11.3-7.3c6.1,0,11.3,3.3,11.3,7.3
			C523.1,195.3,517.9,198.7,511.7,198.7z"/>
		<path style="fill:#1D1D1B;" d="M511.7,186.1c5.3,0,9.3,2.8,9.3,5.3s-4,5.3-9.3,5.3c-5.3,0-9.3-2.8-9.3-5.3
			S506.4,186.1,511.7,186.1 M511.7,182.1c-7.4,0-13.3,4.2-13.3,9.3c0,5.1,6,9.3,13.3,9.3c7.4,0,13.3-4.2,13.3-9.3
			C525.1,186.2,519.1,182.1,511.7,182.1L511.7,182.1z"/>
	</g>
	<g>
		<ellipse style="fill:#683C11;" cx="538.4" cy="180.8" rx="10.8" ry="6.9"/>
		<path style="fill:#1D1D1B;" d="M538.4,175.9c5,0,8.8,2.6,8.8,4.9s-3.8,4.9-8.8,4.9s-8.8-2.6-8.8-4.9S533.4,175.9,538.4,175.9
			 M538.4,171.9c-7.1,0-12.8,4-12.8,8.9s5.7,8.9,12.8,8.9s12.8-4,12.8-8.9S545.5,171.9,538.4,171.9L538.4,171.9z"/>
	</g>
	<g>
		<path style="fill:#683C11;" d="M561.6,176.6c-5.7,0-10.6-2.8-10.6-6.2s4.9-6.2,10.6-6.2s10.6,2.8,10.6,6.2
			S567.3,176.6,561.6,176.6z"/>
		<path style="fill:#1D1D1B;" d="M561.6,166.3c5.2,0,8.6,2.5,8.6,4.2s-3.4,4.2-8.6,4.2c-5.2,0-8.6-2.5-8.6-4.2
			S556.4,166.3,561.6,166.3 M561.6,162.3c-7,0-12.6,3.7-12.6,8.2s5.6,8.2,12.6,8.2s12.6-3.7,12.6-8.2S568.5,162.3,561.6,162.3
			L561.6,162.3z"/>
	</g>
	<rect x="161" y="863.7" style="fill:#DCC949;stroke:#1D1D1B;stroke-width:2;stroke-miterlimit:10;" width="34.3" height="23.8"/>
	<path style="fill:#DCD2C8;stroke:#1D1D1B;stroke-width:2;stroke-miterlimit:10;" d="M21.9,1001.8c0,0,1.9,59.6,12.6,80.4
		c0,0,18,23.4,9.7-2.9c-2.8-8.7-4.6-32.1-4.6-32.1l5.3,35.3c0,0,3.9,7.8,7,7.6c5.6-0.4,2.3-10.3,2.3-10.3l-2.2-31.1l2.7,32.2
		c0,0,4.2,7,6.7,6.2c3.7-1.1,2.7-8.4,2.7-8.4s-5.2-37.8-5.2-37.9c1.4,10.1,3.6,20.4,6.1,30.3c0.2,0.7,0.4,1.4,0.8,1.9
		c0.4,0.6,1.1,1,1.8,0.8c0.7-0.1,1.1-0.8,1.4-1.4c1.4-2.9,0.8-6.3,0.2-9.4c-2.6-14.1-1.7-28.8-1.9-43.1c-0.1-10.1-0.6-20.1-0.4-30.2
		c0.1-5.1,0.3-10.1,0.9-15.1c0.3-2.5,0.6-5,1-7.5c0.3-1.5,0.4-2.2-1-1.4c-2.8,1.6-5.3,4.2-7.9,6.2c-4.1,3.2-8.1,6.4-12.2,9.6
		c-7.6,5.9-15.1,11.9-22.7,17.8C24.1,1000.1,23,1001,21.9,1001.8z"/>
	<path style="fill:#DCD2C8;stroke:#1D1D1B;stroke-width:2;stroke-miterlimit:10;" d="M67.7,957.5c-3.9-8.3-17.3-14.8-27.1-13.1
		c-6.1,1-9.9,5.1-11.5,6.9c-3.8,4.1-6.2,9.4-8.1,14.6c-2.2,6.2-3.6,12.7-4.7,19.2c-1.1,6.6-1.7,13.2-2.2,19.9
		c-0.5,8.2-0.5,16.3-0.6,24.5c0,0.5,0,1.1,0.2,1.6c0.2,0.5,0.6,0.9,1,1.3c3.3,3.2,6.7,6.3,10.2,9.2c3.5,2.9,7.3,5.4,10.9,8.3
		c2.9,2.1,5.8,4.1,9,5.7c1.6,0.8,4.6,2.6,6.4,1.5c2.3-1.4-0.5-7.7-1.4-9.6c-4.9-10.8-12.8-13.8-16.1-18.4
		C22.1,1011.8,78,979.5,67.7,957.5z"/>
	<path style="fill:#DCD2C8;" d="M67.5,964c-0.7,3.3-1.2,6.8-1.7,10.6c-0.8,7.3-1,14-0.8,19.9c-9.8,8.7-19.6,17.4-29.4,26.1l10.4-40
		L67.5,964z"/>
</g>
</svg>
